<svg width="222" height="248" viewBox="0 0 222 248" fill="none" xmlns="http://www.w3.org/2000/svg">
<g filter="url(#filter0_ddd)">
<rect x="81" y="25" width="60" height="60" rx="12" fill="white"/>
<rect x="91" y="35" width="40" height="40" rx="8" fill="#BC0000"/>
<path d="M117.918 57.3164C117.785 59.1523 117.105 60.5977 115.879 61.6523C114.66 62.707 113.051 63.2344 111.051 63.2344C108.863 63.2344 107.141 62.5 105.883 61.0312C104.633 59.5547 104.008 57.5312 104.008 54.9609V53.918C104.008 52.2773 104.297 50.832 104.875 49.582C105.453 48.332 106.277 47.375 107.348 46.7109C108.426 46.0391 109.676 45.7031 111.098 45.7031C113.066 45.7031 114.652 46.2305 115.855 47.2852C117.059 48.3398 117.754 49.8203 117.941 51.7266H114.426C114.34 50.625 114.031 49.8281 113.5 49.3359C112.977 48.8359 112.176 48.5859 111.098 48.5859C109.926 48.5859 109.047 49.0078 108.461 49.8516C107.883 50.6875 107.586 51.9883 107.57 53.7539V55.043C107.57 56.8867 107.848 58.2344 108.402 59.0859C108.965 59.9375 109.848 60.3633 111.051 60.3633C112.137 60.3633 112.945 60.1172 113.477 59.625C114.016 59.125 114.324 58.3555 114.402 57.3164H117.918Z" fill="white"/>
<rect x="81" y="25" width="60" height="60" rx="12" stroke="#94959B" stroke-width="2"/>
<path d="M111 109L100.5 85L121.5 85L111 109Z" fill="white" stroke="#94959B" stroke-width="2"/>
</g>
<defs>
<filter id="filter0_ddd" x="0" y="0" width="222" height="247.495" filterUnits="userSpaceOnUse" color-interpolation-filters="sRGB">
<feFlood flood-opacity="0" result="BackgroundImageFix"/>
<feColorMatrix in="SourceAlpha" type="matrix" values="0 0 0 0 0 0 0 0 0 0 0 0 0 0 0 0 0 0 127 0" result="hardAlpha"/>
<feOffset dy="4.56296"/>
<feGaussianBlur stdDeviation="3.25926"/>
<feColorMatrix type="matrix" values="0 0 0 0 0 0 0 0 0 0 0 0 0 0 0 0 0 0 0.0274815 0"/>
<feBlend mode="normal" in2="BackgroundImageFix" result="effect1_dropShadow"/>
<feColorMatrix in="SourceAlpha" type="matrix" values="0 0 0 0 0 0 0 0 0 0 0 0 0 0 0 0 0 0 127 0" result="hardAlpha"/>
<feOffset dy="21.5704"/>
<feGaussianBlur stdDeviation="12.7407"/>
<feColorMatrix type="matrix" values="0 0 0 0 0 0 0 0 0 0 0 0 0 0 0 0 0 0 0.0425185 0"/>
<feBlend mode="normal" in2="effect1_dropShadow" result="effect2_dropShadow"/>
<feColorMatrix in="SourceAlpha" type="matrix" values="0 0 0 0 0 0 0 0 0 0 0 0 0 0 0 0 0 0 127 0" result="hardAlpha"/>
<feOffset dy="56"/>
<feGaussianBlur stdDeviation="40"/>
<feColorMatrix type="matrix" values="0 0 0 0 0 0 0 0 0 0 0 0 0 0 0 0 0 0 0.07 0"/>
<feBlend mode="normal" in2="effect2_dropShadow" result="effect3_dropShadow"/>
<feBlend mode="normal" in="SourceGraphic" in2="effect3_dropShadow" result="shape"/>
</filter>
</defs>
</svg>
